<svg id="visual" viewBox="0 0 900 600" width="900" height="600" xmlns="http://www.w3.org/2000/svg" xmlns:xlink="http://www.w3.org/1999/xlink" version="1.1"><g stroke-width="1" stroke-linejoin="bevel"><path d="M511.3 272L543.3 321L606.9 251Z" fill="#205a7a" stroke="#205a7a"></path><path d="M543.3 321L631.9 385L606.9 251Z" fill="#081a28" stroke="#081a28"></path><path d="M606.9 251L492.3 111L511.3 272Z" fill="#15384f" stroke="#15384f"></path><path d="M770.4 278L627.9 99L606.9 251Z" fill="#246688" stroke="#246688"></path><path d="M606.9 251L627.9 99L492.3 111Z" fill="#205a7a" stroke="#205a7a"></path><path d="M631.9 385L770.4 278L606.9 251Z" fill="#15384f" stroke="#15384f"></path><path d="M492.3 111L354.7 227L511.3 272Z" fill="#1d4e6b" stroke="#1d4e6b"></path><path d="M511.3 272L369.7 372L543.3 321Z" fill="#19435d" stroke="#19435d"></path><path d="M522.3 508L644.9 490L631.9 385Z" fill="#205a7a" stroke="#205a7a"></path><path d="M354.7 227L369.7 372L511.3 272Z" fill="#1d4e6b" stroke="#1d4e6b"></path><path d="M522.3 508L631.9 385L543.3 321Z" fill="#297ea6" stroke="#297ea6"></path><path d="M631.9 385L800.4 329L770.4 278Z" fill="#205a7a" stroke="#205a7a"></path><path d="M369.7 372L522.3 508L543.3 321Z" fill="#112e42" stroke="#112e42"></path><path d="M492.3 111L358.7 140L354.7 227Z" fill="#15384f" stroke="#15384f"></path><path d="M751.4 440L800.4 329L631.9 385Z" fill="#246688" stroke="#246688"></path><path d="M644.9 490L751.4 440L631.9 385Z" fill="#00101c" stroke="#00101c"></path><path d="M627.9 99L506.3 0L492.3 111Z" fill="#0c2435" stroke="#0c2435"></path><path d="M492.3 111L383.7 0L358.7 140Z" fill="#112e42" stroke="#112e42"></path><path d="M790.4 0L625.9 0L627.9 99Z" fill="#15384f" stroke="#15384f"></path><path d="M627.9 99L625.9 0L506.3 0Z" fill="#0c2435" stroke="#0c2435"></path><path d="M798.4 120L627.9 99L770.4 278Z" fill="#277297" stroke="#277297"></path><path d="M900 260L798.4 120L770.4 278Z" fill="#277297" stroke="#277297"></path><path d="M258.1 448L354.7 516L369.7 372Z" fill="#081a28" stroke="#081a28"></path><path d="M369.7 372L354.7 516L522.3 508Z" fill="#205a7a" stroke="#205a7a"></path><path d="M358.7 140L244.1 224L354.7 227Z" fill="#081a28" stroke="#081a28"></path><path d="M354.7 227L246.1 363L369.7 372Z" fill="#0c2435" stroke="#0c2435"></path><path d="M273.1 114L244.1 224L358.7 140Z" fill="#081a28" stroke="#081a28"></path><path d="M506.3 0L383.7 0L492.3 111Z" fill="#1d4e6b" stroke="#1d4e6b"></path><path d="M244.1 224L246.1 363L354.7 227Z" fill="#081a28" stroke="#081a28"></path><path d="M383.7 0L273.1 114L358.7 140Z" fill="#297ea6" stroke="#297ea6"></path><path d="M400.7 600L503.3 600L522.3 508Z" fill="#0c2435" stroke="#0c2435"></path><path d="M522.3 508L653.9 600L644.9 490Z" fill="#112e42" stroke="#112e42"></path><path d="M644.9 490L756.4 600L751.4 440Z" fill="#0c2435" stroke="#0c2435"></path><path d="M900 352L900 260L800.4 329Z" fill="#19435d" stroke="#19435d"></path><path d="M800.4 329L900 260L770.4 278Z" fill="#19435d" stroke="#19435d"></path><path d="M503.3 600L653.9 600L522.3 508Z" fill="#15384f" stroke="#15384f"></path><path d="M751.4 440L900 352L800.4 329Z" fill="#112e42" stroke="#112e42"></path><path d="M900 480L900 352L751.4 440Z" fill="#205a7a" stroke="#205a7a"></path><path d="M246.1 363L258.1 448L369.7 372Z" fill="#297ea6" stroke="#297ea6"></path><path d="M900 85L790.4 0L798.4 120Z" fill="#15384f" stroke="#15384f"></path><path d="M798.4 120L790.4 0L627.9 99Z" fill="#19435d" stroke="#19435d"></path><path d="M354.7 516L400.7 600L522.3 508Z" fill="#0c2435" stroke="#0c2435"></path><path d="M278.1 600L400.7 600L354.7 516Z" fill="#00101c" stroke="#00101c"></path><path d="M653.9 600L756.4 600L644.9 490Z" fill="#1d4e6b" stroke="#1d4e6b"></path><path d="M900 260L900 85L798.4 120Z" fill="#297ea6" stroke="#297ea6"></path><path d="M756.4 600L900 480L751.4 440Z" fill="#205a7a" stroke="#205a7a"></path><path d="M246.1 363L162.6 464L258.1 448Z" fill="#297ea6" stroke="#297ea6"></path><path d="M244.1 224L161.6 329L246.1 363Z" fill="#297ea6" stroke="#297ea6"></path><path d="M131.6 230L161.6 329L244.1 224Z" fill="#00101c" stroke="#00101c"></path><path d="M162.6 464L278.1 600L258.1 448Z" fill="#15384f" stroke="#15384f"></path><path d="M258.1 448L278.1 600L354.7 516Z" fill="#112e42" stroke="#112e42"></path><path d="M137.6 95L244.1 224L273.1 114Z" fill="#246688" stroke="#246688"></path><path d="M137.6 95L131.6 230L244.1 224Z" fill="#205a7a" stroke="#205a7a"></path><path d="M900 85L900 0L790.4 0Z" fill="#246688" stroke="#246688"></path><path d="M383.7 0L222.1 0L273.1 114Z" fill="#277297" stroke="#277297"></path><path d="M111.6 600L162.6 464L0 456Z" fill="#297ea6" stroke="#297ea6"></path><path d="M161.6 329L162.6 464L246.1 363Z" fill="#277297" stroke="#277297"></path><path d="M222.1 0L137.6 95L273.1 114Z" fill="#1d4e6b" stroke="#1d4e6b"></path><path d="M756.4 600L900 600L900 480Z" fill="#246688" stroke="#246688"></path><path d="M222.1 0L161.6 0L137.6 95Z" fill="#112e42" stroke="#112e42"></path><path d="M0 398L162.6 464L161.6 329Z" fill="#246688" stroke="#246688"></path><path d="M162.6 464L111.6 600L278.1 600Z" fill="#081a28" stroke="#081a28"></path><path d="M0 222L161.6 329L131.6 230Z" fill="#277297" stroke="#277297"></path><path d="M0 119L131.6 230L137.6 95Z" fill="#15384f" stroke="#15384f"></path><path d="M0 119L0 222L131.6 230Z" fill="#246688" stroke="#246688"></path><path d="M0 222L0 398L161.6 329Z" fill="#277297" stroke="#277297"></path><path d="M0 0L0 119L137.6 95Z" fill="#205a7a" stroke="#205a7a"></path><path d="M0 398L0 456L162.6 464Z" fill="#246688" stroke="#246688"></path><path d="M161.6 0L0 0L137.6 95Z" fill="#15384f" stroke="#15384f"></path><path d="M0 456L0 600L111.6 600Z" fill="#277297" stroke="#277297"></path></g></svg>